<svg id="visual" viewBox="0 0 675 900" width="675" height="900" xmlns="http://www.w3.org/2000/svg" xmlns:xlink="http://www.w3.org/1999/xlink" version="1.1"><rect x="0" y="0" width="675" height="900" fill="#002233"></rect><path d="M0 763L16 755.7C32 748.3 64 733.7 96.2 706.7C128.3 679.7 160.7 640.3 192.8 641.2C225 642 257 683 289.2 679C321.3 675 353.7 626 385.8 615.7C418 605.3 450 633.7 482.2 633.3C514.3 633 546.7 604 578.8 594.2C611 584.3 643 593.7 659 598.3L675 603L675 901L659 901C643 901 611 901 578.8 901C546.7 901 514.3 901 482.2 901C450 901 418 901 385.8 901C353.7 901 321.3 901 289.2 901C257 901 225 901 192.8 901C160.7 901 128.3 901 96.2 901C64 901 32 901 16 901L0 901Z" fill="#0066FF" stroke-linecap="round" stroke-linejoin="miter"></path></svg>